<svg width="90" height="140" viewBox="0 0 90 140" fill="none" xmlns="http://www.w3.org/2000/svg">
<path fill-rule="evenodd" clip-rule="evenodd" d="M86.2168 72.6176C80.8331 80.0823 70.9326 82.3603 62.9473 78.4102C69.2159 84.7405 70.1792 94.8541 64.7957 102.319C59.4121 109.783 49.5115 112.061 41.5262 108.111C47.7948 114.441 48.7581 124.555 43.3745 132.019C37.3772 140.335 25.7739 142.214 17.4585 136.217C9.99408 130.833 7.71584 120.933 11.6659 112.947C5.33564 119.216 -4.77798 120.179 -12.2424 114.796C-19.7068 109.412 -21.985 99.5114 -18.035 91.5261C-24.3652 97.7948 -34.4787 98.7582 -41.9433 93.3745C-50.2589 87.377 -52.138 75.7739 -46.1406 67.4585C-40.7571 59.9941 -30.8564 57.7158 -22.8713 61.6657C-29.1397 55.3356 -30.1031 45.222 -24.7195 37.7576C-19.336 30.2932 -9.43526 28.015 -1.4502 31.9649C-7.71859 25.6348 -8.68206 15.5213 -3.29836 8.0567C2.69909 -0.25889 14.3021 -2.13811 22.6177 3.85933C30.0823 9.24303 32.3603 19.1436 28.4104 27.1286C34.7405 20.8602 44.8541 19.8969 52.3186 25.2805C59.783 30.664 62.0612 40.5647 58.1113 48.5498C64.4414 42.2814 74.555 41.3181 82.0194 46.7016C90.3349 52.6989 92.2143 64.3021 86.2168 72.6176ZM24.8072 32.1246C19.1987 37.6784 10.6205 39.0677 3.54574 35.5681C9.09957 41.1765 10.4888 49.755 6.9891 56.8297C12.5976 51.2759 21.1761 49.8865 28.2509 53.3862C22.697 47.7777 21.3075 39.1993 24.8072 32.1246ZM33.2464 56.9891C40.3212 60.4888 48.8996 59.0995 54.5081 53.5457C51.0084 60.6204 52.3979 69.1988 57.9518 74.8073C50.877 71.3076 42.2984 72.697 36.69 78.2509C40.1897 71.1761 38.8003 62.5975 33.2464 56.9891ZM15.2688 107.952C20.8773 102.398 29.4559 101.008 36.5306 104.508C30.9768 98.8997 29.5874 90.3212 33.0871 83.2464C27.4786 88.8003 18.9 90.1896 11.8253 86.69C17.3791 92.2984 18.7685 100.877 15.2688 107.952ZM3.38618 61.8252C-0.113511 68.9 1.27587 77.4786 6.82975 83.087C-0.245024 79.5873 -8.82359 80.9767 -14.432 86.5306C-10.9324 79.4558 -12.3216 70.8774 -17.8754 65.269C-10.8007 68.7686 -2.22227 67.3791 3.38618 61.8252Z" fill="#FFD6E6"/>
</svg>
