<svg width="39" height="39" viewBox="0 0 39 39" fill="none" xmlns="http://www.w3.org/2000/svg">
<rect width="39" height="39" rx="19.5" fill="#FFFEF5"/>
<g clip-path="url(#clip0_182_125015)">
<path d="M19.46 10.9226C19.7098 10.9226 19.9124 10.7201 19.9124 10.4702V8.45241C19.9124 8.20255 19.7098 8 19.46 8C19.2101 8 19.0076 8.20255 19.0076 8.45241V10.4702C19.0076 10.7201 19.2102 10.9226 19.46 10.9226Z" fill="#DDCF38"/>
<path d="M30.5183 23.5423L29.7191 22.7453C29.4348 22.4614 29.0559 22.305 28.6521 22.305C28.394 22.305 28.1461 22.3692 27.9265 22.4896L26.4205 20.9853L26.4938 20.912C27.1048 20.2998 27.1046 19.305 26.4938 18.6949C26.2755 18.4762 26.0031 18.3304 25.7062 18.2691C25.7471 18.128 25.7686 17.9802 25.7686 17.8289C25.7686 17.4087 25.6054 17.0146 25.3099 16.7203C25.0916 16.5017 24.8193 16.3558 24.5224 16.2945C24.5632 16.1534 24.5848 16.0056 24.5848 15.8543C24.5848 15.434 24.4215 15.04 24.1255 14.7453C23.902 14.522 23.6272 14.3807 23.3387 14.3206C23.493 13.7884 23.3611 13.1896 22.9425 12.7702C22.594 12.4232 22.1211 12.2741 21.6653 12.3224L18.681 11.7575C18.2258 11.6712 17.6574 11.6141 17.2986 11.9413C17.276 11.962 17.2529 11.9857 17.2302 12.0122C16.6738 11.8094 16.025 11.9302 15.5795 12.3752C15.284 12.6704 15.1212 13.0642 15.1212 13.4842C15.1212 13.6355 15.1426 13.7833 15.1834 13.9244C14.8869 13.9858 14.6149 14.1314 14.3973 14.3494C14.1012 14.6443 13.9379 15.0377 13.9376 15.4572C13.9374 15.6089 13.9589 15.7571 14 15.8986C13.7033 15.9598 13.4311 16.1052 13.2129 16.3231C12.9168 16.6189 12.7537 17.013 12.7537 17.4328C12.7537 17.7544 12.8497 18.0607 13.0276 18.3195C12.803 18.3956 12.5972 18.5223 12.425 18.6944C11.8136 19.305 11.8133 20.2999 12.4254 20.913L12.4984 20.9858L10.9922 22.4892C10.4324 22.2257 9.74276 22.3244 9.28083 22.7858L8.48113 23.5832C8.19668 23.8673 8.04008 24.2463 8.04004 24.6503C8.04004 25.0543 8.19668 25.4333 8.48113 25.7174L9.47916 26.7142C9.65592 26.8908 9.94239 26.8906 10.1189 26.7139C10.2955 26.5371 10.2953 26.2506 10.1186 26.0741L9.12055 25.0773C9.00725 24.9641 8.94486 24.8125 8.94486 24.6503C8.94486 24.4882 9.00725 24.3366 9.12028 24.2237L9.92002 23.4262C10.1198 23.2266 10.4257 23.1969 10.6579 23.3357C10.6743 23.3603 10.6932 23.3836 10.7148 23.4053C10.7536 23.4442 10.7978 23.474 10.8448 23.4958L15.431 28.0752C15.4528 28.1227 15.4827 28.1674 15.5218 28.2065C15.5598 28.2445 15.6031 28.274 15.6491 28.2956C15.7461 28.4053 15.7997 28.5453 15.7997 28.6948C15.7997 28.8569 15.7373 29.0085 15.624 29.1217L14.8251 29.9197C14.589 30.1547 14.205 30.1547 13.9697 29.9204L12.9717 28.9223C12.795 28.7456 12.5086 28.7456 12.3319 28.9223C12.1552 29.099 12.1552 29.3854 12.3319 29.5621L13.3306 30.5609C13.6246 30.8537 14.0107 31 14.3969 31C14.7832 31 15.1697 30.8534 15.4641 30.5604L16.2635 29.7619C16.5479 29.4778 16.7046 29.0988 16.7046 28.6948C16.7046 28.4064 16.6244 28.131 16.4753 27.8936L18.1705 26.2005C18.1723 26.1986 18.1741 26.1968 18.1759 26.1949C18.37 25.9943 18.9105 26.0318 19.4333 26.0681C19.8047 26.094 20.2188 26.1227 20.6234 26.076L22.4797 27.9302C22.3595 28.1494 22.2953 28.397 22.2953 28.6547C22.2953 29.0583 22.4519 29.4371 22.7364 29.7212L23.5358 30.5197C23.8201 30.8037 24.199 30.9601 24.6028 30.9601C25.0065 30.9601 25.3854 30.8037 25.6697 30.5197L30.5186 25.6767C30.8031 25.3926 30.9597 25.0136 30.9597 24.6096C30.9597 24.2056 30.803 23.8267 30.5183 23.5423ZM18.5125 12.6465L20.475 13.018L19.3003 14.1922C19.1186 14.1048 18.8696 13.942 18.5964 13.6806C18.2224 13.3228 17.9549 12.9098 17.9305 12.6522C17.9305 12.652 17.9305 12.6519 17.9305 12.6518C17.9305 12.6517 17.9304 12.6517 17.9304 12.6516C17.9287 12.6331 17.9282 12.6183 17.9285 12.6071C17.9876 12.5927 18.1448 12.5767 18.5125 12.6465ZM16.2189 13.0154C16.4481 12.7864 16.8041 12.76 17.0631 12.9353C17.2099 13.5507 17.7348 14.1084 17.9709 14.3344C18.1459 14.5018 18.7075 15.0039 19.2743 15.1419C19.351 15.2518 19.3927 15.3829 19.3927 15.5211C19.3927 15.6993 19.3242 15.8658 19.1994 15.9905C19.0749 16.1152 18.9081 16.1838 18.7297 16.1838C18.5512 16.1838 18.3844 16.1152 18.2594 15.9899L18.2593 15.9899L18.2591 15.9896L16.2188 13.9531C16.0944 13.8288 16.0259 13.6623 16.0259 13.4842C16.026 13.3061 16.0945 13.1396 16.2189 13.0154ZM15.0367 14.9895C15.1612 14.8649 15.3278 14.7962 15.506 14.7962C15.6843 14.7962 15.8515 14.865 15.9768 14.9902L17.6197 16.6298C17.8784 16.8889 17.8784 17.3105 17.6206 17.5687C17.4954 17.6934 17.328 17.762 17.1493 17.762C16.9706 17.762 16.8032 17.6934 16.6786 17.5693L16.6785 17.5692L15.4322 16.3231C15.4302 16.3212 15.4281 16.3194 15.4261 16.3174L15.0362 15.9277C14.9111 15.8027 14.8422 15.6359 14.8424 15.4579C14.8426 15.2805 14.9112 15.1145 15.0367 14.9895ZM13.8523 16.9633C13.9769 16.8389 14.1438 16.7704 14.3225 16.7704C14.4998 16.7704 14.6653 16.8379 14.7893 16.9602L16.0395 18.2098C16.1642 18.3339 16.2328 18.5003 16.2328 18.6782C16.2328 18.856 16.1642 19.0224 16.039 19.147C15.9145 19.2714 15.7477 19.3399 15.5693 19.3399C15.3907 19.3399 15.2233 19.2712 15.0986 19.147L14.6454 18.6943C14.6453 18.6942 14.6452 18.6941 14.6451 18.694L13.8523 17.9022C13.7274 17.7774 13.6586 17.6106 13.6586 17.4327C13.6586 17.2549 13.7274 17.0881 13.8523 16.9633ZM13.0644 19.3346C13.1895 19.2096 13.3567 19.1408 13.5352 19.1408C13.7136 19.1408 13.8807 19.2095 14.0058 19.3344L14.4596 19.7877C14.5843 19.9119 14.653 20.0782 14.653 20.2561C14.653 20.434 14.5843 20.6003 14.4587 20.7255C14.3342 20.8501 14.1674 20.9188 13.989 20.9188C13.8105 20.9188 13.6437 20.8502 13.5184 20.7246L13.4615 20.668C13.4608 20.6672 13.4602 20.6664 13.4595 20.6657C13.4586 20.6649 13.4577 20.6642 13.4569 20.6633L13.0648 20.2728C12.8061 20.0136 12.8059 19.5927 13.0644 19.3346ZM22.2839 24.4762C22.1073 24.2994 21.8208 24.2993 21.6441 24.4758L21.2416 24.8778C20.8591 25.2603 20.1661 25.2121 19.4959 25.1656C18.7681 25.1151 18.0156 25.0629 17.5286 25.5628L15.8622 27.2272L11.6951 23.0662L13.1698 21.5942C13.4135 21.7436 13.6948 21.8237 13.9891 21.8237C14.4095 21.8237 14.8037 21.6607 15.0982 21.3657C15.3946 21.0705 15.5579 20.6765 15.5579 20.2562C15.5579 20.2523 15.5577 20.2484 15.5577 20.2445C15.5616 20.2445 15.5655 20.2448 15.5694 20.2448C15.9892 20.2448 16.3832 20.0823 16.678 19.7878C16.9745 19.4925 17.1378 19.0985 17.1378 18.6783C17.1378 18.6743 17.1375 18.6705 17.1375 18.6666C17.1414 18.6666 17.1454 18.6668 17.1494 18.6668C17.5691 18.6668 17.9632 18.5045 18.2601 18.2089C18.5682 17.9002 18.7207 17.4939 18.7177 17.0884C18.7218 17.0884 18.7258 17.0886 18.7299 17.0886C19.1503 17.0886 19.5445 16.9257 19.8394 16.6302C20.1349 16.335 20.2977 15.9412 20.2977 15.5211C20.2977 15.2274 20.2179 14.9466 20.0689 14.7033L21.3615 13.4113C21.4578 13.3154 21.5766 13.2552 21.701 13.2304C21.7145 13.229 21.7278 13.2268 21.741 13.2242C21.9407 13.1967 22.1504 13.2583 22.3032 13.4104C22.5619 13.6696 22.5619 14.0912 22.3041 14.3494L21.9105 14.7414C21.9092 14.7427 21.9078 14.7439 21.9065 14.7452L21.4531 15.1978C21.2763 15.3744 21.2761 15.6608 21.4527 15.8376C21.6293 16.0144 21.9157 16.0146 22.0925 15.838L22.4877 15.4433C22.4878 15.4432 22.4879 15.4432 22.4879 15.4431L22.5477 15.3835C22.8071 15.1265 23.2274 15.127 23.4866 15.3858C23.6113 15.51 23.6799 15.6763 23.6799 15.8542C23.6799 16.0321 23.6113 16.1984 23.4856 16.3236L23.0897 16.7203C23.0896 16.7203 23.0896 16.7204 23.0895 16.7205L22.6362 17.172C22.4592 17.3483 22.4586 17.6348 22.6349 17.8118C22.8112 17.9888 23.0976 17.9893 23.2747 17.8131L23.7301 17.3595C23.8546 17.2348 24.0214 17.1661 24.1998 17.1661C24.3783 17.1661 24.5451 17.2348 24.6705 17.3604C24.7952 17.4846 24.8638 17.6509 24.8638 17.8288C24.8638 18.0067 24.7952 18.173 24.6698 18.2979L23.8805 19.0875C23.7038 19.2642 23.7039 19.5506 23.8806 19.7273C23.9689 19.8156 24.0847 19.8597 24.2004 19.8597C24.3162 19.8597 24.432 19.8155 24.5203 19.7271L24.9072 19.3402C24.9094 19.3381 24.9118 19.3362 24.914 19.334C25.0384 19.2093 25.2052 19.1407 25.3837 19.1407C25.5621 19.1407 25.7289 19.2093 25.8539 19.3345C26.1123 19.5926 26.1121 20.0136 25.8539 20.2722L25.4606 20.6651C25.4604 20.6652 25.4602 20.6653 25.4601 20.6655C25.46 20.6656 25.4598 20.6658 25.4597 20.6659L24.8355 21.2894C24.6587 21.466 24.6585 21.7524 24.8351 21.9292C24.9234 22.0177 25.0393 22.0619 25.1552 22.0619C25.2709 22.0619 25.3866 22.0178 25.4749 21.9296L25.7802 21.6246L27.2436 23.0863L23.0769 27.248L21.584 25.7569C21.6881 25.6899 21.7877 25.6112 21.8811 25.5177L22.2834 25.116C22.4603 24.9395 22.4605 24.653 22.2839 24.4762ZM29.8792 25.0365L25.0303 29.8795C24.9168 29.9928 24.765 30.0552 24.6027 30.0552C24.4405 30.0552 24.2886 29.9928 24.1752 29.8795L23.3757 29.081C23.2624 28.9679 23.2 28.8165 23.2 28.6547C23.2 28.493 23.2624 28.3416 23.3757 28.2285L28.2246 23.3854C28.3381 23.2721 28.4899 23.2097 28.6522 23.2097C28.8144 23.2097 28.9663 23.2721 29.08 23.3857L29.8792 24.1827C29.9925 24.2958 30.0549 24.4474 30.0549 24.6096C30.0549 24.7718 29.9925 24.9234 29.8792 25.0365Z" fill="#DDCF38"/>
<path d="M13.4525 10.5412C13.5408 10.6294 13.6565 10.6734 13.7721 10.6734C13.888 10.6734 14.0039 10.6291 14.0923 10.5405C14.2688 10.3637 14.2685 10.0773 14.0917 9.90077L12.4431 8.2555C12.2663 8.079 11.9798 8.07923 11.8033 8.25613C11.6268 8.43299 11.6271 8.71941 11.804 8.89591L13.4525 10.5412Z" fill="#DDCF38"/>
<path d="M25.1477 10.6734C25.2634 10.6734 25.3791 10.6293 25.4674 10.5411L27.1147 8.89582C27.2915 8.71927 27.2917 8.43281 27.1151 8.25604C26.9385 8.07927 26.6521 8.07909 26.4753 8.25568L24.828 9.90099C24.6512 10.0775 24.6511 10.364 24.8276 10.5408C24.916 10.6292 25.0319 10.6734 25.1477 10.6734Z" fill="#DDCF38"/>
<path d="M10.8219 27.4603C10.6468 27.6385 10.6492 27.9249 10.8274 28.1001L10.8287 28.1014C10.9166 28.1878 11.0308 28.2308 11.1449 28.2308C11.262 28.2308 11.3791 28.1855 11.4678 28.0952C11.643 27.9171 11.6399 27.63 11.4617 27.4548C11.2836 27.2797 10.9972 27.2822 10.8219 27.4603Z" fill="#DDCF38"/>
<path d="M23.3906 23.8245C23.4594 23.8245 23.5292 23.8088 23.5947 23.7758C23.8178 23.6633 23.9074 23.3912 23.795 23.1682C23.6824 22.9451 23.4103 22.8554 23.1873 22.9679L23.1848 22.9692C22.9617 23.0817 22.8733 23.3531 22.9858 23.5762C23.0652 23.7338 23.225 23.8245 23.3906 23.8245Z" fill="#DDCF38"/>
</g>
<defs>
<clipPath id="clip0_182_125015">
<rect width="23" height="23" fill="white" transform="translate(8 8)"/>
</clipPath>
</defs>
</svg>
