<svg width="39" height="39" viewBox="0 0 39 39" fill="none" xmlns="http://www.w3.org/2000/svg">
<rect width="39" height="39" rx="19.5" fill="#E4E1FF"/>
<g clip-path="url(#clip0_182_124997)">
<path d="M19.5 10.3C19.7117 10.3 19.8834 10.1283 19.8834 9.91665V8.38333C19.8834 8.17164 19.7117 8 19.5 8C19.2883 8 19.1167 8.17164 19.1167 8.38333V9.91665C19.1167 10.1283 19.2883 10.3 19.5 10.3Z" fill="#7969FF"/>
<path d="M14.7599 9.75644L15.5265 11.0839C15.6312 11.268 15.8652 11.3323 16.0492 11.2277C16.2333 11.123 16.2976 10.889 16.193 10.7049C16.1922 10.7035 16.1913 10.702 16.1905 10.7005L15.4238 9.37306C15.3191 9.18901 15.0851 9.12466 14.9011 9.22931C14.717 9.33396 14.6527 9.56798 14.7573 9.75203C14.7581 9.75351 14.759 9.755 14.7599 9.75644Z" fill="#7969FF"/>
<path d="M11.6689 13.1211C11.6703 13.1219 11.6718 13.1227 11.6733 13.1236L13.0008 13.8903C13.1834 13.9973 13.4183 13.9361 13.5253 13.7534C13.6324 13.5707 13.5711 13.3359 13.3885 13.2289C13.387 13.228 13.3855 13.2272 13.3841 13.2263L12.0566 12.4597C11.8739 12.3526 11.6391 12.4139 11.5321 12.5965C11.425 12.7791 11.4862 13.014 11.6689 13.1211Z" fill="#7969FF"/>
<path d="M12.6001 17.1999C12.6001 16.9882 12.4285 16.8166 12.2168 16.8166H10.6835C10.4718 16.8166 10.3002 16.9882 10.3002 17.1999C10.3002 17.4116 10.4718 17.5832 10.6835 17.5832H12.2168C12.4285 17.5832 12.6001 17.4116 12.6001 17.1999Z" fill="#7969FF"/>
<path d="M13.0051 20.507C13.0037 20.5078 13.0022 20.5087 13.0007 20.5096L11.6732 21.2762C11.4892 21.3808 11.4248 21.6148 11.5294 21.7989C11.634 21.9829 11.868 22.0473 12.052 21.9427C12.0535 21.9419 12.055 21.941 12.0565 21.9401L13.384 21.1735C13.568 21.0689 13.6324 20.8349 13.5278 20.6508C13.4232 20.4668 13.1892 20.4024 13.0051 20.507Z" fill="#7969FF"/>
<path d="M27.3314 21.2788C27.3299 21.278 27.3284 21.2771 27.3269 21.2762L25.9994 20.5096C25.8168 20.4025 25.5819 20.4637 25.4748 20.6463C25.3677 20.8289 25.429 21.0638 25.6116 21.1709C25.6131 21.1718 25.6146 21.1726 25.616 21.1735L26.9435 21.9402C27.1261 22.0472 27.361 21.986 27.4681 21.8034C27.5752 21.6207 27.514 21.3859 27.3314 21.2788Z" fill="#7969FF"/>
<path d="M28.3167 16.8166H26.7834C26.5717 16.8166 26.4 16.9882 26.4 17.1999C26.4 17.4116 26.5717 17.5832 26.7834 17.5832H28.3167C28.5284 17.5832 28.7 17.4116 28.7 17.1999C28.7 16.9882 28.5284 16.8166 28.3167 16.8166Z" fill="#7969FF"/>
<path d="M25.8081 13.9416C25.8754 13.9416 25.9415 13.9239 25.9998 13.8902L27.3272 13.1236C27.5113 13.0189 27.5756 12.7849 27.471 12.6008C27.3663 12.4168 27.1323 12.3524 26.9483 12.4571C26.9468 12.4579 26.9454 12.4588 26.9439 12.4596L25.6164 13.2263C25.4331 13.3321 25.3703 13.5666 25.4761 13.7499C25.5446 13.8685 25.6712 13.9416 25.8081 13.9416Z" fill="#7969FF"/>
<path d="M22.9496 11.2243C22.9498 11.2244 22.9499 11.2245 22.95 11.2245C23.1334 11.3303 23.3679 11.2674 23.4736 11.084L23.4737 11.0839L24.2403 9.75639C24.3474 9.57378 24.2862 9.33889 24.1036 9.2318C23.921 9.12471 23.6861 9.18594 23.579 9.36855C23.5781 9.37004 23.5773 9.37152 23.5764 9.37301L22.8097 10.7005C22.7038 10.8838 22.7664 11.1183 22.9496 11.2243Z" fill="#7969FF"/>
<path d="M20.2668 23.3332C20.4785 23.3332 20.6501 23.1615 20.6501 22.9498V18.7332H21.4168C22.2636 18.7332 22.9501 18.0467 22.9501 17.1999C22.9501 16.3531 22.2636 15.6666 21.4168 15.6666C20.57 15.6666 19.8835 16.3531 19.8835 17.1999V17.9665H19.1168V17.1999C19.1168 16.3531 18.4303 15.6666 17.5835 15.6666C16.7367 15.6666 16.0502 16.3531 16.0502 17.1999C16.0502 18.0467 16.7367 18.7332 17.5835 18.7332H18.3501V22.9498C18.3501 23.1615 18.5218 23.3332 18.7335 23.3332C18.9452 23.3332 19.1168 23.1615 19.1168 22.9498V18.7332H19.8835V22.9498C19.8835 23.1615 20.0551 23.3332 20.2668 23.3332ZM20.6501 17.1999C20.6501 16.7764 20.9933 16.4332 21.4168 16.4332C21.8402 16.4332 22.1834 16.7764 22.1834 17.1999C22.1834 17.6233 21.8402 17.9665 21.4168 17.9665H20.6501V17.1999ZM18.3501 17.9665H17.5835C17.1601 17.9665 16.8168 17.6233 16.8168 17.1999C16.8168 16.7764 17.1601 16.4332 17.5835 16.4332C18.0069 16.4332 18.3501 16.7764 18.3501 17.1999V17.9665Z" fill="#7969FF"/>
<path d="M19.798 11.0739C16.4146 10.9114 13.54 13.5224 13.3774 16.9058C13.2843 18.8431 14.1132 20.7103 15.6124 21.9409C15.8826 22.1526 16.0434 22.4745 16.0502 22.8176V23.7165C16.0522 24.2021 16.359 24.6341 16.8168 24.7959V25.2498C16.8178 25.5336 16.9244 25.8069 17.1158 26.0165C16.7172 26.4498 16.7172 27.1164 17.1158 27.5498C16.6897 28.017 16.7229 28.7412 17.1901 29.1673C17.4023 29.3609 17.6796 29.4677 17.9668 29.4664C18.1731 29.4718 18.3448 29.3089 18.3502 29.1026C18.3523 29.0221 18.3283 28.943 18.2819 28.8773C18.2698 28.8538 18.2554 28.8316 18.239 28.8109C18.2074 28.7821 18.1715 28.7585 18.1324 28.7412C18.1213 28.7354 18.1102 28.7308 18.0987 28.7262C18.0599 28.7121 18.0192 28.7039 17.9779 28.7021C17.9741 28.7021 17.9706 28.6998 17.9668 28.6998C17.7551 28.6998 17.5835 28.5281 17.5835 28.3164C17.5835 28.1047 17.7551 27.9331 17.9668 27.9331H19.5001C19.7118 27.9331 19.8835 27.7615 19.8835 27.5498C19.8835 27.3381 19.7118 27.1665 19.5001 27.1665H17.9668C17.7551 27.1665 17.5835 26.9948 17.5835 26.7831C17.5835 26.5714 17.7551 26.3998 17.9668 26.3998H19.5001C19.7118 26.3998 19.8835 26.2282 19.8835 26.0165C19.8835 25.8048 19.7118 25.6331 19.5001 25.6331H17.9668C17.7551 25.6331 17.5835 25.4615 17.5835 25.2498V24.8665H19.5001C19.7118 24.8665 19.8835 24.6948 19.8835 24.4831C19.8835 24.2715 19.7118 24.0998 19.5001 24.0998H17.2002C16.9885 24.0998 16.8168 23.9282 16.8168 23.7165V22.8176C16.8105 22.2444 16.5466 21.7045 16.0981 21.3475C13.8083 19.4657 13.4776 16.0838 15.3594 13.794C16.4359 12.4842 18.0681 11.7601 19.7616 11.8409C22.5937 12.0094 24.8184 14.3305 24.8667 17.1673C24.8805 18.799 24.1468 20.3472 22.8753 21.3697C22.4302 21.7364 22.1757 22.2854 22.1834 22.8621V23.7165C22.1834 23.9282 22.0118 24.0998 21.8001 24.0998H20.6501C20.4384 24.0998 20.2668 24.2715 20.2668 24.4831C20.2668 24.6948 20.4384 24.8665 20.6501 24.8665H21.4168V25.2498C21.4168 25.4615 21.2451 25.6331 21.0334 25.6331H20.6501C20.4384 25.6331 20.2668 25.8048 20.2668 26.0165C20.2668 26.2282 20.4384 26.3998 20.6501 26.3998H21.0334C21.2451 26.3998 21.4168 26.5714 21.4168 26.7831C21.4168 26.9948 21.2451 27.1665 21.0334 27.1665H20.6501C20.4384 27.1665 20.2668 27.3381 20.2668 27.5498C20.2668 27.7615 20.4384 27.9331 20.6501 27.9331H21.0334C21.2451 27.9331 21.4168 28.1047 21.4168 28.3164C21.4168 28.5281 21.2451 28.6998 21.0334 28.6998H19.1168C18.9051 28.6998 18.7335 28.8714 18.7335 29.0831C18.7335 29.2948 18.9051 29.4664 19.1168 29.4664H20.5846C20.3729 30.0652 19.7159 30.3791 19.1171 30.1674C18.9338 30.1027 18.7699 29.9924 18.6407 29.8471C18.4999 29.689 18.2576 29.6749 18.0994 29.8156C17.9413 29.9564 17.9272 30.1988 18.068 30.3569C18.7691 31.1469 19.9778 31.219 20.7678 30.518C21.0941 30.2284 21.3116 29.8361 21.3842 29.4059C21.9845 29.2182 22.3191 28.5795 22.1315 27.9791C22.0817 27.8196 21.9973 27.673 21.8844 27.5498C22.2831 27.1164 22.2831 26.4498 21.8844 26.0165C22.0759 25.8069 22.1824 25.5336 22.1834 25.2498V24.7959C22.6413 24.6341 22.9481 24.2021 22.9501 23.7165V22.8621C22.945 22.5177 23.0942 22.189 23.3568 21.9662C24.8108 20.7973 25.6496 19.0271 25.6334 17.1616C25.578 13.9192 23.0351 11.2664 19.798 11.0739Z" fill="#7969FF"/>
</g>
<defs>
<clipPath id="clip0_182_124997">
<rect width="23" height="23" fill="white" transform="translate(8 8)"/>
</clipPath>
</defs>
</svg>
